<?xml version="1.0" encoding="UTF-8"?>
<svg id="_レイヤー_1" data-name="レイヤー_1" xmlns="http://www.w3.org/2000/svg" viewBox="0 0 388.76 96.63">
  <defs>
    <style>
      .cls-1, .cls-2 {
        fill: #4d6b3d;
      }

      .cls-2 {
        font-family: InkFree, 'Ink Free';
        font-size: 47px;
        letter-spacing: -.12em;
      }
    </style>
  </defs>
  <g>
    <path class="cls-1" d="M78.52,32.77c-.07-.84-.17-1.68-.36-2.51-.09-.39-.45-.66-.84-.66-.06,0-.13,0-.19.02-.43.1-.7.53-.65.96-.15.15-.25.34-.24.56.05,1.04.07,2.07.05,3.11-.02.88-.08,1.77-.13,2.65-.11,1.84-.26,3.67-.54,5.49-.15.83-.32,1.66-.49,2.49-.18.87-.35,1.73-.56,2.59-.11.46-.22.92-.34,1.38-.11.44-.26.87-.39,1.3-.13.41-.24.82-.39,1.23-.11.31-.22.62-.33.93-.04.09-.09.17-.13.26-.43.83-.9,1.64-1.35,2.45-.86,1.52-1.68,3.07-2.48,4.62-.15.25-.3.5-.45.74-.47.76-.94,1.52-1.39,2.29-.86,1.48-1.85,2.88-2.61,4.41-.2.41-.42.81-.62,1.22-.23.48-.45.95-.68,1.43-.18.4-.36.81-.53,1.21-.18.42-.37.82-.54,1.24-1.36,3.4-2.63,6.88-3.2,10.51-.16,1-.19,2.01-.1,3.02.05.6.12,1.21.2,1.81-.14.12-.24.26-.29.45-.04.18-.05.35,0,.52-.14.1-.27.2-.41.31-.3.06-.61.12-.91.18-.74.15-1.48.28-2.22.37-.59.05-1.18.08-1.78.06-.32-.09-.64-.18-.96-.28-.74-.24-1.48-.51-2.2-.82-.5-.25-.98-.51-1.45-.81-.44-.28-.85-.59-1.25-.91-.73-.66-1.4-1.35-2.01-2.13-.63-.8-1.25-1.62-1.86-2.44-.5-.73-.97-1.49-1.45-2.24-.53-.84-1.06-1.69-1.57-2.54-.44-.74-.85-1.5-1.32-2.23-.52-.81-1.05-1.63-1.57-2.44-.51-.8-1.02-1.59-1.55-2.38-.54-.8-1.08-1.6-1.6-2.42-.52-.8-1-1.62-1.48-2.45-.46-.79-.86-1.6-1.27-2.42-.4-.8-.84-1.58-1.2-2.4-.38-.86-.77-1.72-1.15-2.59-.73-1.69-1.45-3.38-2.29-5.01-.59-1.14-1.19-2.3-1.9-3.37-.21-.32-.44-.63-.68-.92-.22-.26-.48-.49-.73-.72-.26-.24-.55-.47-.86-.65-.34-.2-.75-.33-1.13-.4-.37-.07-.73-.08-1.11-.03,0,0-.01,0-.02,0-.24-.08-.48-.15-.73-.21-.33-.09-.65-.16-.98-.24-.09-.02-.19-.04-.28-.06-.1-.03-.21-.05-.32-.07-.07-.02-.14-.03-.21-.05-.08-.02-.16-.03-.24-.03-.35,0-.68.21-.81.53,0,0,0,0,0,0-.15,0-.3.04-.42.11-.19.11-.34.29-.41.5-.07.22-.04.46.06.66.11.21.28.32.5.41.52.22,1.03.43,1.54.66.68.33,1.35.68,2,1.08.66.4,1.29.84,1.9,1.33.5.43,1.01.87,1.45,1.35.48.52.92,1.06,1.34,1.63.28.4.56.81.83,1.23.1.23.19.46.29.69.32.74.72,1.43,1.15,2.11.24.37.49.74.75,1.1.01.01.03.03.04.04.25.5.51,1,.75,1.51.37.77.7,1.55,1.05,2.33.36.81.72,1.61,1.1,2.41.39.81.81,1.61,1.23,2.41.41.76.84,1.5,1.24,2.26.42.8.83,1.61,1.26,2.42.35.66.66,1.35.99,2.02.34.69.67,1.39,1,2.08.47.99.89,1.99,1.3,3.01-.01.16-.01.33,0,.47.03.34.09.68.16,1.02.08.43.18.85.29,1.27.13.49.31.96.5,1.43.16.4.36.78.58,1.14.25.4.51.78.82,1.13.21.24.45.46.68.67.4.35.8.7,1.21,1.04.65.54,1.37.98,2.12,1.38.07.05.14.1.21.14.68.46,1.37.91,2.09,1.32.4.22.81.44,1.24.61.42.17.85.31,1.29.42.87.22,1.77.32,2.67.4-.11.13-.19.27-.22.44-.05.15-.05.31-.01.46.04.15.14.34.25.45.21.22.5.3.79.32.3.02.6-.11.87-.21.68-.28,1.34-.63,1.94-1.06.1-.07.2-.14.3-.21.04.15.07.3.09.45-.09.23-.15.48-.21.72-.07.3-.14.59-.21.89-.05.21-.08.43-.11.65-.02.16-.01.31,0,.48.03.29.19.49.43.66.13.08.28.13.43.13.21,0,.48-.07.62-.23.06-.07.13-.15.19-.23.05-.11.1-.22.15-.33.05-.11.08-.23.11-.35.04-.14.08-.28.11-.43.08-.35.15-.7.18-1.06.02-.2.03-.4.03-.6.04-.11.09-.22.14-.33.08-.15.16-.28.25-.42.07-.07.14-.14.22-.21.14-.09.28-.16.42-.23.25-.08.5-.13.76-.17.44-.03.87,0,1.31.06.44.08.88.19,1.31.29.46.11.94-.1,1.08-.57.13-.43-.11-.97-.57-1.08-.27-.07-.55-.13-.82-.19.8-.42,1.56-.91,2.3-1.44.37-.27.73-.54,1.08-.83.35-.28.68-.59,1.01-.9s.64-.64.94-.98c.19-.21.36-.43.54-.64.24-.29.41-.62.56-.96.13-.28.15-.61.07-.91-.1-.37-.39-.62-.75-.72-.1-.03-.19-.04-.29-.04-.21,0-.43.05-.63.12-.2.07-.39.16-.59.24-.4.17-.77.41-1.14.64-.78.47-1.52.99-2.26,1.51-.13.09-.26.19-.39.28-.4.17-.79.36-1.18.55.19-.87.38-1.74.58-2.62.19-.89.4-1.77.61-2.65.22-.89.47-1.78.71-2.67.5-1.82,1.08-3.61,1.69-5.4.14-.4.3-.8.46-1.2.18-.44.35-.88.53-1.32.37-.91.76-1.81,1.14-2.71.16-.38.33-.75.5-1.12.37-.78.73-1.56,1.1-2.34.41-.86.85-1.71,1.27-2.57.31-.62.63-1.24.96-1.85.77-1.28,1.55-2.55,2.27-3.86.22-.4.44-.8.64-1.2.22-.45.45-.89.63-1.35.04-.1.08-.21.12-.31.22-.42.43-.85.65-1.27.43-.86.86-1.74,1.21-2.64.33-.86.67-1.72.92-2.6.27-.95.52-1.9.68-2.87.32-1.87.58-3.76.67-5.66.04-.93.02-1.87,0-2.8-.01-.9-.07-1.79-.15-2.69Z"/>
    <path class="cls-1" d="M93.9,28.58c-.19-.15-.5-.16-.77-.16-.06,0-.12,0-.17,0h-.1c-.27-.07-.54-.14-.81-.23-.44-.14-.86-.32-1.29-.46-.92-.29-1.87-.4-2.83-.43-1.23-.05-2.47-.02-3.7-.04-.21-.05-.43-.09-.64-.13-.69-.13-1.39-.22-2.09-.32-.57-.08-1.15-.15-1.72-.2.04-1.59.08-3.4.02-5.13-.03-1.03-.12-2.03-.24-2.99-.09-.63-.22-1.25-.35-1.86-.05-.24-.11-.49-.16-.73-.14-.67-.32-1.39-.57-2.21-.21-.7-.46-1.36-.69-1.96-.72-1.9-1.35-3.48-2.1-5.04-.17-.35-.39-.8-.62-1.24-.17-.31-.34-.62-.52-.93l-.16-.28c-.23-.39-.5-.8-.85-1.27-.25-.34-.52-.7-.85-1-.54-.51-1.02-.85-1.5-1.09-.48-.24-1.03-.42-1.74-.57-.58-.12-1.02-.19-1.43-.23-.45-.04-.92-.07-1.41-.08-.08,0-.16,0-.25,0-.27,0-.55.01-.83.02h-.08s-.22.01-.22.01c-.47.02-.93.05-1.4.08-.9.06-1.84.18-2.95.38-2.14.37-3.85.73-5.39,1.14-.87.23-1.72.46-2.58.72-.98.3-1.87.58-2.7.87l-.61.21c-1.02.36-2.18.77-3.32,1.07-.61.16-1.34.35-2.06.49-.36.07-.72.14-1.08.2-.26.04-.52.08-.78.11h-.09s-.09.02-.09.02c-.67.06-1.23.1-1.75.12-.33.01-.68.02-1.08.02-.33,0-.66,0-.99-.01-.64-.02-1.29-.07-1.85-.13l-.26-.02c-.51-.05-1.1-.1-1.66-.19l-.41-.07c-.49-.1-.93-.2-1.34-.31-.26-.07-.51-.15-.76-.22h-.03c-.16-.06-.31-.11-.47-.15-.49-.14-.88-.25-1.24-.33-.45-.1-.96-.21-1.47-.22-.09,0-.18,0-.27,0-.12,0-.25,0-.37,0-.43.01-.84.1-1.26.2-.42.1-.87.25-1.34.45-.2.09-.4.17-.6.26-.38.17-.72.37-1.04.6-.44.32-.8.7-1.19,1.14-.41.46-.73.99-1.04,1.53-.13.22-.24.46-.33.66l-.08.16c-.17.35-.31.7-.4.94-.42,1.09-.74,2.25-.94,3.45l.03-.08c-.09.45-.16.92-.23,1.46-.06.43-.09.87-.12,1.29v.11c-.08.92-.12,1.82-.12,2.68,0,1.09,0,2.19,0,3.28v.3c0,.67,0,1.34,0,2.01,0,1.93-.17,3.89-.34,5.57-.08.84-.2,1.74-.35,2.74-.04.28-.08.56-.13.85-.08.54-.18,1.15-.25,1.75-.05.44-.1.87-.14,1.31-.04.45-.04.9-.03,1.28.01.54.09,1.07.18,1.58-.02,0-.04,0-.06.01-.43.08-.86.16-1.29.27-.38.1-.75.22-1.13.34-.83.27-1.66.49-2.51.69-.86.2-1.73.38-2.55.71-.55.22-1.08.49-1.61.75-.57.28-1.15.55-1.72.84-.44.22-.89.46-1.3.74-.07-.02-.14-.03-.21-.04-.24,0-.43.07-.62.23-.78.64-1.52,1.35-2.25,2.18-.35.39-.71.82-1.07,1.28-.31.39-.57.72-.78,1.08-.26.42-.5.88-.75,1.39-.17.35-.3.65-.4.95-.08.26-.13.53-.17.8l-.02.15c-.05.32-.05.69,0,1.1.06.41.18.78.37,1.12.27.49.75.87,1.47,1.15.32.12.69.15,1.02.18.07,0,.13,0,.19,0,.24,0,.5-.03.7-.06.54-.07,1.03-.2,1.47-.32.44-.12.88-.27,1.3-.41l.06-.02.21-.07.09-.03.05-.02c.49-.17,1-.34,1.5-.53l.13-.05.05-.02c.46-.18.91-.36,1.35-.54l.18-.07c.27-.11.53-.21.8-.32.09-.03.17-.07.26-.1h.03s.04-.03.04-.03h0s.07-.02.07-.02l.04-.02.16-.06.08-.03h-.04s.05,0,.05,0c0,0,.04-.01.04-.01l.13-.05.04-.02.23-.08c.77-.29,1.55-.58,2.32-.83.59-.19,1.18-.37,1.77-.55l.24-.07c.26-.08.52-.16.78-.24,1.62-.5,3.31-.98,4.79-1.41l.84-.24c.95-.28,1.93-.56,2.94-.82.65-.16,1.29-.34,1.94-.52l.88-.24.39-.1c.34-.09.68-.18,1.01-.28.31-.09.62-.18.93-.28l.42-.13c.78-.24,1.57-.49,2.34-.74l.11-.03.42-.14.62-.2.16-.05c.65-.21,1.31-.42,1.97-.62.65-.19,1.32-.36,1.97-.53h.04s.26-.08.26-.08c.17-.04.34-.09.51-.13.94-.25,1.88-.49,2.82-.73.55-.14,1.11-.29,1.66-.44.39-.1.77-.21,1.15-.31,1.04-.27,2.07-.57,2.94-.83l.21-.06.18-.05c.33-.1.66-.19.98-.3.31-.1.62-.2.93-.31h.04s.46-.17.46-.17c.89-.3,1.82-.6,2.75-.89l.29-.09c.33-.1.66-.21.99-.32l.66-.23.66-.23c2.08-.74,3.93-1.38,5.64-1.96.93-.32,1.9-.6,2.83-.87.78-.23,1.54-.47,2.28-.71l.14-.05.34-.11c1.55-.51,3.6-1.15,5.68-1.7,2.02-.53,4.07-.94,5.63-1.24,1.39-.27,2.82-.49,4.2-.71h.08s.41-.08.41-.08c.44-.07.87-.14,1.31-.21.87-.14,1.73-.28,2.6-.41,1.09-.17,2.17-.34,3.26-.52.25-.04.5-.08.76-.12l.11-.02.54-.09c.14-.02.27-.05.41-.07l.28-.05c.07-.01.13-.02.2-.03.15-.02.31-.05.47-.1.33-.11.54-.31.63-.59.05-.15.05-.31.02-.47-.06-.23-.19-.38-.38-.54Z"/>
  </g>
  <text class="cls-2" transform="translate(83.69 67.77)"><tspan x="0" y="0">ISUMI VILLAGE</tspan></text>
</svg>