<?xml version="1.0" encoding="UTF-8"?>
<svg id="_レイヤー_1" data-name="レイヤー_1" xmlns="http://www.w3.org/2000/svg" viewBox="0 0 309.4 175">
  <defs>
    <style>
      .cls-1 {
        fill: #bcaa94;
      }

      .cls-2 {
        fill: #231815;
      }

      .cls-3 {
        fill: #7a9062;
      }

      .cls-4 {
        fill: #b5c1a7;
      }

      .cls-5 {
        fill: #4d6b3d;
      }
    </style>
  </defs>
  <g>
    <polygon class="cls-4" points="207.31 173.61 305.37 164.24 263.3 17.35 208.6 144.91 207.31 173.61"/>
    <path class="cls-3" d="M113.23,159.58l.93.22c1.66.39,3.32.82,4.97,1.24.94.24,1.88.48,2.82.71.68.17,1.37.34,2.05.52,1.95.5,3.97,1.01,5.98,1.43,2.09.44,4.85,1.01,7.69,1.45,1.23.19,2.46.37,3.69.56,1.23.18,2.46.37,3.69.56,2.87.45,5.22.8,7.4,1.1,2.29.31,4.8.59,7.66.84l1.72.15c1.8.16,3.67.32,5.5.53,1.17.16,2.35.34,3.52.53.81.14,1.62.29,2.43.45.51.1,1.01.2,1.52.29,2.69.49,5.42.9,7.84,1.26,2.56.38,5.1.85,7.56,1.38,1.19.26,2.53.54,3.84.88.36.09.72.19,1.08.29.79.22,1.62.44,2.44.58.42.07.77.12,1.13.12.24,0,.46-.02.68-.07.59-.12,1.12-.43,1.47-.85.54-.65.86-1.38,1.2-2.15.4-.91.72-1.8,1.03-2.66l.23-.63c.8-2.21,1.7-4.51,2.65-6.85l.42-1.03c.83-2.03,1.69-4.12,2.43-6.23l.85-2.41c.57-1.61,1.13-3.22,1.69-4.83.38-1.1.77-2.2,1.17-3.3.47-1.3.93-2.6,1.37-3.91.85-2.51,1.71-5.16,2.65-8.09.45-1.39.87-2.79,1.29-4.19.33-1.09.66-2.18,1-3.27.33-1.06.71-2.13,1.08-3.16l.08-.23.39-1.11c.3-.85.59-1.69.91-2.53.85-2.28,1.56-4.13,2.23-5.82.54-1.37,1.13-2.74,1.71-4.07l.19-.45c1.12-2.5,2.26-4.99,3.39-7.48.76-1.68,1.5-3.37,2.23-5.06.06-.1.11-.22.16-.36l.04-.09,1.1-2.54c.4-.93.75-1.8,1.11-2.68l.47-1.15c.94-2.31,1.79-4.7,2.61-7.01l.08-.23.61-1.73c.63-1.79,1.27-3.58,1.88-5.38l.54-1.59c.69-1.99,1.39-4.04,2.01-6.09l.59-1.97c.57-1.91,1.14-3.83,1.75-5.73l.89-2.8c.57-1.78,1.13-3.56,1.69-5.34.61-1.95,1.3-3.92,1.96-5.83.26-.75.52-1.5.78-2.26,1.05-3.07,1.88-5.4,2.67-7.56.94-2.56,2-5.12,2.93-7.38.51-1.24,1.02-2.49,1.52-3.73.61-1.49,1.23-3.1,1.69-4.75.12-.42.15-.85.17-1.26.02-.36-.09-.78-.32-1.26-.29-.62-.84-1.07-1.71-1.41-.55-.22-1.15-.36-1.72-.5l-.44-.1c-1.12-.27-2.32-.51-3.67-.72-2.69-.42-5.38-.79-7.9-1.13-5.44-.73-10.89-1.4-16.19-1.98-5.79-.64-11.58-1.27-17.37-1.89l-.14-.02c-2.37-.25-4.82-.51-7.24-.65-.5-.03-1-.06-1.5-.09-.96-.06-1.93-.12-2.89-.15-1.67-.06-3.34-.11-5.01-.16l-1.78-.06c-1.83-.06-3.67-.13-5.5-.15l-6.42-.1-2.5-.04c-2.99-.05-6.03-.13-8.96-.21-1.43-.04-2.85-.1-4.26-.16-1.01-.04-2.02-.09-3.03-.12-2.61-.09-5.22-.19-7.83-.29-3.39-.13-6.78-.26-10.18-.37-1.15-.04-2.3-.08-3.45-.13-1.31-.05-2.61-.1-3.92-.14l-.89-.03c-2.52-.08-5.12-.16-7.68-.28-3.18-.15-6.96-.36-10.78-.73l-1.48-.14c-1.49-.14-2.99-.29-4.48-.44-1.3-.13-2.59-.29-3.89-.45l-1.38-.17c-2.51-.36-5.02-.73-7.54-1.12-1-.16-2-.28-3-.41l-.89-.11c-.66-.08-1.43-.17-2.19-.17-.54,0-1.02.04-1.47.12-.36.07-.71.17-1.04.31-.17-.31-.43-.57-.75-.76-.31-.18-.67-.27-1.05-.27-.19,0-.38.02-.55.07-.55.14-.87.45-1.24.92-2.58,3.27-5.59,7.14-8.45,11.09l-1.62,2.23c-2.12,2.93-4.32,5.96-6.43,8.98-1.12,1.6-2.23,3.19-3.33,4.79l-1.04,1.5c-.96,1.38-1.89,2.8-2.8,4.18l-.29.44c-2.68,4.06-5.33,8.14-7.98,12.22-.81,1.25-1.61,2.5-2.41,3.75l-.76,1.2-.6.93c-.82,1.27-1.66,2.59-2.44,3.92l-1.31,2.24c-.87,1.49-1.74,2.98-2.61,4.48-.27.46-.52.94-.77,1.41l-.35.66c-.76,1.4-1.52,2.81-2.29,4.21-.94,1.72-1.86,3.46-2.79,5.19-.96,1.8-1.92,3.61-2.9,5.4l-1.94,3.55-1.94,3.55c-.72,1.32-1.41,2.64-2.1,3.97l-.7,1.33c-1.38,2.62-2.74,5.3-4.05,7.9-.54,1.06-1.08,2.13-1.62,3.19-1.83,3.59-3.98,7.82-6.04,12.03-.6,1.24-1.2,2.47-1.8,3.71-1.23,2.53-2.49,5.14-3.78,7.69-1,1.99-2.02,3.96-3.04,5.93-.5.97-1,1.94-1.49,2.92-.9.03-1.7.63-1.88,1.42-.2.88-.48,1.74-.84,2.62-.29.65-.58,1.29-.87,1.94-.22.49-.43.98-.63,1.48-.15.41-.23.85-.22,1.26.02.62.27,1.17.79,1.73.4.44,1.05.64,1.62.82.55.17,1.07.22,1.58.26.15.01.31.03.46.04,1.03.15,2.06.33,3.07.54.66.14,1.31.27,1.97.4.66.13,1.32.26,1.97.4,2.71.57,5.15,1.06,7.69,1.42,2.85.4,5.72.47,8.15.49h2.19c1.82.02,3.65.04,5.47.06h.46c3.73.06,7.58.11,11.34.46,3.47.32,7.13.7,11.51,1.19,2.8.4,5.63.88,8.37,1.34,2.37.4,4.81.81,7.23,1.18l.65.1c2.61.39,5.31.8,7.99,1,1.7.13,3.4.26,5.11.39l2.49.19c1.7.13,3.39.27,5.09.42l2.15.18c1.02.08,2.04.18,3.06.27l.55.05.9.08c.74.06,1.48.13,2.21.22.72.1,1.44.19,2.15.28,1.45.25,2.86.49,4.27.76.93.18,1.86.4,2.76.62Z"/>
    <path class="cls-2" d="M223.7,125.91c-.03.08-.06.15-.1.23-.02.04-.03.07-.04.11l.14-.34Z"/>
    <path class="cls-5" d="M229.28,111.92c.69-1.67,1.38-3.34,2.07-5.02.59-1.44,1.2-2.88,1.79-4.33.69-1.71,1.35-3.43,1.99-5.16,1.14-3.12,2.27-6.24,3.32-9.39.27-.82.51-1.64.76-2.47.24-.78.5-1.55.75-2.32.52-1.59,1.03-3.19,1.55-4.79.51-1.59,1.02-3.18,1.54-4.76.76-1.69,1.53-3.38,2.32-5.05.68-1.43,1.37-2.86,2.07-4.28.36-.73.72-1.45,1.07-2.18.36-.73.74-1.46,1.06-2.21.66-1.53,1.35-3.06,1.89-4.64.52-1.51,1.03-3.02,1.48-4.55.92-3.14,1.93-6.26,2.94-9.38.96-2.94,1.81-5.91,2.67-8.88.66-2.28,1.27-4.58,1.86-6.88.59-2.33,1.05-4.69,1.51-7.04.08-.39.06-.75-.14-1.1-.15-.25-.37-.45-.63-.57,0-.04.01-.09.02-.13.24-.28.33-.58.37-.95.05-.48.15-1.02.02-1.5-.08-.29-.19-.55-.4-.77-.29-.29-.71-.49-1.12-.49-.72,0-1.24.48-1.61,1.07-.33.17-.59.47-.74.82-.11.26-.21.51-.29.77-.16.48-.24.97-.31,1.48-.02.15-.03.3-.04.45-.22.72-.41,1.46-.58,2.2-.11.51-.21,1.02-.28,1.54-.04.29-.08.59-.1.88-.57,1.21-1.19,2.4-1.71,3.64-.54,1.3-1.03,2.62-1.42,3.97-.41,1.43-.79,2.87-1.21,4.3-.37,1.28-.76,2.55-1.26,3.78-.29.64-.6,1.26-.94,1.88-.34.62-.72,1.22-1.08,1.82-.35.58-.66,1.19-.96,1.8-.35.72-.68,1.46-.99,2.2-.55,1.33-1.02,2.7-1.49,4.06-.21.62-.45,1.24-.66,1.87-.22.66-.45,1.31-.69,1.96-1,2.77-2.1,5.51-3.14,8.27-.27.72-.56,1.43-.83,2.15-.28.74-.56,1.49-.85,2.23-.53,1.33-1.05,2.66-1.6,3.99-.13.3-.25.6-.38.9-.61,1.45-1.18,2.91-1.78,4.36-1.17,2.75-2.42,5.46-3.7,8.16-.31.65-.6,1.31-.91,1.96-.34.7-.7,1.39-1.02,2.1-.66,1.45-1.27,2.92-1.85,4.4-1.12,2.86-2.08,5.77-3.03,8.69-.47,1.44-.95,2.88-1.46,4.31-.51,1.44-.98,2.9-1.46,4.36-.95,2.92-1.99,5.8-2.99,8.7-.52,1.5-1.02,3.01-1.51,4.52-.46,1.4-.91,2.8-1.44,4.18-.24.63-.49,1.27-.73,1.9-.13.31-.26.61-.39.92-.65,1.5-1.28,3.01-1.92,4.51-.61,1.44-1.21,2.89-1.76,4.35-.8,2.1-1.63,4.2-2.32,6.34-.36,1.11-.72,2.22-1.06,3.34-.13.4-.25.81-.37,1.21-.32.77-.63,1.55-.95,2.32-.62,1.52-1.21,3.05-1.78,4.6-.57,1.55-1.11,3.12-1.69,4.67-.72,1.94-1.49,3.87-2.18,5.82-.43,1.22-.81,2.46-1.09,3.72-.13.21-.25.42-.36.63-.1.19-.2.37-.3.56-.1.19-.22.45-.28.65-.08.26-.11.52-.13.79-.02.2.1.68.22.85.18.23.32.46.59.61.58.33,1.26.4,1.91.26.5-.11.96-.35,1.4-.61.43-.25.83-.57,1.18-.92.18.23.43.4.72.48.23.06.46.07.7.01.08.08.17.15.28.22.65.38,1.54.16,1.92-.5.13-.23.21-.48.27-.74.07-.19.15-.37.22-.55.15-.37.28-.75.4-1.12.25-.72.51-1.44.75-2.15.39-1.13.74-2.27,1.09-3.41.04-.12.08-.25.12-.37.09-.29.18-.59.27-.88.02-.07.04-.14.06-.21.13-.43.26-.86.38-1.3.91-2.77,1.77-5.55,2.6-8.34.21-.71.42-1.42.64-2.13.22-.61.43-1.21.64-1.82.56-1.61,1.12-3.22,1.68-4.83,1.06-3.07,2.21-6.1,3.28-9.17.55-1.57,1.09-3.15,1.6-4.73.07-.22.14-.43.21-.65.38-.95.77-1.9,1.15-2.85.31-.73.62-1.47.93-2.2,1.31-3.1,2.58-6.22,3.78-9.36.62-1.62,1.24-3.25,1.89-4.86Z"/>
    <path class="cls-3" d="M236.82,71.27s.04-.09.06-.14c.03-.06.05-.13.08-.19-.05.11-.09.22-.14.33Z"/>
    <path class="cls-5" d="M308.5,161.34c.62-.18,1.05-.93.85-1.6,0-.02-.01-.04-.02-.06-.08-.28-.14-.56-.2-.85-.08-.36-.16-.72-.25-1.08-.16-.68-.32-1.36-.5-2.02-.39-1.41-.77-2.81-1.18-4.21-.44-1.49-.91-2.97-1.33-4.46-.42-1.48-.83-2.96-1.27-4.43-.41-1.37-.88-2.72-1.35-4.07-.46-1.32-.92-2.63-1.41-3.94-.51-1.37-1.05-2.73-1.59-4.09-.06-.15-.12-.31-.18-.46-.23-1.01-.48-2.01-.73-3.02-.38-1.49-.77-2.97-1.18-4.45-.3-1.1-.63-2.19-.96-3.29-.33-1.11-.68-2.21-1.07-3.3-.39-1.11-.77-2.22-1.15-3.32-.35-1-.73-2-1.12-2.98-.38-.97-.79-1.94-1.18-2.91-.5-1.33-.94-2.68-1.35-4.04-.2-.69-.38-1.39-.56-2.09-.19-.73-.39-1.45-.57-2.18-.37-1.46-.76-2.91-1.15-4.37-.4-1.48-.84-2.94-1.26-4.41-.85-2.97-1.63-5.96-2.61-8.89-.94-2.8-1.92-5.58-2.77-8.41-.45-1.51-.88-3.02-1.36-4.52-.44-1.37-.87-2.74-1.29-4.11-.44-1.45-.88-2.91-1.27-4.37-.39-1.42-.76-2.84-1.15-4.26-.39-1.42-.85-2.81-1.21-4.24-.39-1.53-.76-3.06-1.11-4.6-.35-1.54-.71-3.07-1.08-4.6-.34-1.44-.7-2.88-1.14-4.29-.45-1.44-.89-2.89-1.34-4.33-.45-1.44-.87-2.87-1.4-4.28-.28-.75-.6-1.48-.91-2.22-.27-.65-.56-1.3-.86-1.94-.29-.6-.61-1.18-.93-1.76-.33-.61-.71-1.18-1.08-1.75-.47-.72-.95-1.44-1.46-2.12-.19-.26-.4-.51-.61-.75-.11-.13-.23-.27-.35-.4-.16-.18-.34-.31-.53-.46-.15-.11-.34-.17-.54-.18-.01-.03-.03-.05-.04-.08-.24-.47-.49-1.02-.96-1.28-.06-.04-.13-.07-.2-.09-.09-.17-.19-.32-.32-.46-.25-.26-.58-.4-.91-.4-.11,0-.22.02-.34.05-.42.12-.8.5-.9.96-.18.79.06,1.65.25,2.42.15.62.31,1.23.48,1.84.06.24.19.46.35.62.1.75.21,1.49.32,2.24.19,1.56.39,3.13.67,4.68.28,1.53.61,3.04,1.03,4.54.41,1.5.87,2.97,1.37,4.44.5,1.46,1.06,2.91,1.64,4.34.39,1.39.77,2.78,1.16,4.17.84,3.02,1.69,6.04,2.53,9.07.96,3.46,1.93,6.92,2.91,10.38.44,1.54.89,3.07,1.33,4.6.42,1.46.88,2.9,1.35,4.35.91,2.87,1.89,5.71,2.88,8.55.59,1.68,1.16,3.36,1.77,5.03.29.81.57,1.63.86,2.44.25.72.52,1.44.76,2.17.98,3,1.97,6,2.9,9.02.56,1.82,1.13,3.64,1.69,5.46.88,3.01,1.66,6.05,2.43,9.09.4,1.6.89,3.17,1.34,4.76.42,1.47.86,2.93,1.33,4.38.93,2.91,1.85,5.83,2.78,8.75.48,1.49.94,3,1.43,4.49s.99,2.98,1.46,4.48c.44,1.4.85,2.81,1.21,4.24.37,1.44.65,2.9,1.04,4.34.38,1.43.84,2.84,1.36,4.22.55,1.47,1.28,2.84,2.03,4.2.69,1.25,1.42,2.48,2.09,3.75.31.58.6,1.17.93,1.74.28.47.68.88,1.24.88.22,0,.5-.07.7-.19.22-.14.35-.33.49-.55.23-.38.24-.94.29-1.37.04-.3.04-.6.06-.89.02-.45.02-.91,0-1.37.27.18.6.24.94.14ZM270.76,39.84c-.21-.86-.42-1.73-.63-2.59.08.25.16.51.24.76.45,1.43.81,2.89,1.16,4.35.37,1.53.72,3.06,1.08,4.6.11.49.23.97.34,1.46-.75-2.85-1.47-5.71-2.18-8.58ZM278,67.31c-1-3.03-1.85-6.11-2.59-9.22-.32-1.33-.64-2.66-.97-3.99.16.53.31,1.06.46,1.6.79,2.9,1.56,5.8,2.44,8.67.43,1.39.86,2.78,1.31,4.17.43,1.34.82,2.68,1.22,4.03-.07-.18-.13-.36-.2-.54-.57-1.56-1.13-3.13-1.65-4.72ZM282.53,88.49c-.08-.25-.15-.49-.23-.74-.15-.46-.31-.91-.46-1.37-.11-.35-.22-.69-.34-1.04-.53-1.67-1.06-3.33-1.56-5.01-.22-.73-.43-1.45-.64-2.18.43,1.21.85,2.43,1.28,3.64.49,1.39.9,2.81,1.33,4.22.47,1.53.93,3.06,1.38,4.59.14.47.28.94.42,1.4-.39-1.17-.79-2.34-1.18-3.52Z"/>
  </g>
  <path class="cls-1" d="M256.02,32.23c.13-.84.2-1.73.26-2.44v-.05s.01-.06.01-.06v-.04s.02-.13.02-.13c.03-.35.05-.7.08-1.05v-.19s.03-.2.03-.2c.03-.46.07-.93.11-1.39.08-1,.17-1.9.27-2.74.04-.3.07-.59.11-.88v-.05s.01-.05.01-.05v-.04s.02-.12.02-.12v-.07c.08-.52.14-1.02.19-1.53.06-.79.09-1.6.11-2.38v-.09s0-.11,0-.11v-.04s0-.09,0-.09c.03-.76.05-1.62.13-2.44,0-.04,0-.09.01-.13v-.07s.02-.05.02-.05v-.06c.02-.09.03-.18.04-.27,0-.16.02-.32.04-.48,0-.08,0-.14-.02-.21.2-.09.4-.22.59-.33l.55-.34c.5-.31,1.01-.63,1.52-.92.42-.24.57-.75.35-1.16-.11-.2-.3-.35-.51-.42s-.45-.04-.64.07c-.61.35-1.2.72-1.82,1.1l-.08.05-.18.11c-.2.12-.39.24-.59.36-.74.46-1.55.9-2.25,1.28l-.36.19c-.88.49-1.81.97-2.51,1.33-.4.21-.72.36-1.01.49l-.19.09-.25.12c-.25.12-.53.25-.89.39l-.05.02-.34.15c-1.26.55-2.56,1.05-3.71,1.49h-.03s-.47.19-.47.19c-.95.36-1.84.69-2.74,1-.28.1-.57.18-.86.27l-.14.04c-.15.04-.3.08-.44.13l-.56.17-.56.17-.32.1-.38.11c-.29.09-.58.18-.87.26l-.41.11-1.09.29c-.35.09-.72.17-1.04.24h-.04c-.18.05-.37.09-.55.13-.34.08-.67.15-1.01.22l-.22.05-.35.07-.09.02c-.29.06-.58.12-.87.18l-.95.17-.95.17c-.19.03-.39.06-.58.08l-.13.02h-.04s-.04.01-.04.01h-.07s-.32.05-.32.05l-.66.09-.85.11c-.44.06-.89.11-1.33.17-.48.06-.97.12-1.45.18l-.41.05-.21.03-.15.02-.12.02c-.69.09-1.4.18-2.1.26-.62.07-1.24.13-1.86.2l-.86.06-.67.05-.39.03h-.05c-.25.02-.51.04-.76.06-.28.01-.56.03-.84.04h-.11s-.07,0-.07,0h-.06c-.57.03-1.2.06-1.82.07h-.67s-.09,0-.09,0h-.1s-.14,0-.14,0c-.59,0-1.33.02-2.02,0h-.06s-.19,0-.19,0c-.94-.02-1.9-.04-2.84-.08l-.55-.02h-.16c-.29-.02-.59-.03-.88-.04-.34-.02-.68-.04-1.01-.07l-.46-.03c-.81-.05-1.62-.11-2.43-.17l-.2-.02c-.04-.07-.12-.15-.22-.2-.06-.04-.14-.08-.21-.1-.16-.05-.32-.05-.45,0-.2.07-.26.1-.41.21h-.08s-1.46-.16-1.46-.16l-.5-.05c-.59-.05-1.18-.14-1.76-.22l-.13-.02h-.05s-.04-.01-.04-.01h-.05s-.58-.09-.58-.09c-.24-.04-.47-.08-.7-.12h-.07c-.57-.11-1.22-.21-1.86-.35-.55-.11-1.09-.23-1.64-.35l-.09-.02-.08-.02c-.28-.06-.57-.13-.85-.21l-.26-.07-.15-.04-.15-.04c-.33-.08-.65-.16-.97-.25,0,0,0,0,0-.05-.09-.22-.28-.38-.57-.51-.02,0-.04-.02-.06-.02-.28-.08-.58.04-.81.16l-.1-.04-.19-.06-.19-.06c-.08-.02-.16-.05-.24-.08l-.11-.04-.5-.18-.5-.18c-.48-.17-.83-.31-1.12-.43-.45-.19-.9-.39-1.36-.58l-.76-.39-.76-.39c-.99-.5-2.04-1.18-3.19-2.06-.38-.32-.75-.63-1.13-.94-.25-.21-.49-.43-.71-.63l-.09-.08-.12-.11c-.07-.06-.14-.13-.21-.19-.74-.68-1.34-1.24-1.94-1.83-.66-.65-1.32-1.29-1.98-1.93-.01-.17-.09-.34-.21-.48-.1-.11-.22-.19-.37-.23-.05-.02-.11-.03-.17-.03-.16-.16-.33-.33-.5-.5-.21-.21-.41-.43-.61-.65l-.35-.38-.25-.26-.03-.03c-.69-.73-1.39-1.48-1.99-2.29-.24-.36-.42-.69-.55-1-.09-.2-.31-.35-.49-.4-.2-.06-.43-.04-.63.06-.19.11-.34.29-.4.49s-.04.39.06.63c.4.91,1.02,1.66,1.67,2.42.37.44.77.86,1.15,1.26l.05.05c.22.23.43.46.65.69.29.31.58.63.88.93-.18.18-.38.42-.58.71-.6.82-1.02,1.76-1.43,2.67l-.2.44c-.06.14-.13.29-.2.43l-.02.04-.03.06v.03s-.02.03-.02.03v.03s-.01,0-.03.03l-.02.04-.02.04s0,0,0,0c0,0,0,0-.01.03l-.02.04c-.05.09-.07.15-.09.2l-.02.05-.31.67-.02.05c-.04.06-.07.13-.09.2l-.02.05-.02.04s-.04.08-.06.12c-.05.09-.09.19-.13.28l-.07.16v.05s-.06.11-.06.11l-.06.12v.03c-.05.07-.08.13-.1.18v.03s-.05.08-.05.08l-.06.13-.02.04c-.24.53-.47,1.02-.69,1.51-.12.27-.25.55-.37.83l-.12.27-.02.04-.03.06c-.3.65-.6,1.3-.9,1.95l.06-.02c-.46.9-.8,1.83-1.12,2.71l-.08.24-.02.06-.02.07c-.13.37-.25.72-.33,1.06-.03.15-.06.3-.05.44.01.17.04.28.11.46.09.19.27.34.5.41.17.05.34.06.5.02.3-.06.52-.23.75-.41.16-.12.31-.27.49-.45.67-.66,1.34-1.32,2.18-2.12.59-.56,1.22-1.09,1.82-1.59l.05-.04.04-.04.28-.23c.22-.18.44-.36.67-.54l.03-.02.03-.02.17-.14.23-.19c.2-.16.4-.32.6-.48l.46-.37c.22-.18.44-.35.66-.53l.1-.08.05-.04c.45-.36.92-.74,1.38-1.1.66-.45,1.22-.82,1.72-1.11l.11-.07c.19-.12.39-.23.58-.35l-.07.45v.21c-.03.17-.04.33-.05.5-.07.82-.17,1.64-.27,2.55l-.02.13v.11c-.06.39-.1.78-.14,1.17v.05s-.01.08-.01.08v.05s-.03.24-.03.24l-.03.2c-.04.33-.07.66-.11.99l-.05.46c-.04.35-.08.69-.13,1.03l-.07.49c-.05.32-.09.65-.13.97l-.05.37v.05s-.02.07-.02.07c-.05.37-.08.64-.1.92-.05.57-.08,1.08-.1,1.56-.03.77-.01,1.62.06,2.66.01.25.04.49.07.71.03.19.06.42.16.63.06.12.14.24.24.35.08.1.18.17.33.22.07.02.14.03.21.04.2.03.38,0,.62-.09.14-.07.25-.14.36-.22.22-.16.41-.35.58-.52.27-.27.52-.57.74-.85l.07-.09c.45-.55.89-1.11,1.41-1.8l.03-.04.23-.3c.25-.32.49-.64.73-.96l.11-.15.15-.2.16-.21c.34-.45.68-.89,1.02-1.34.58-.74,1.21-1.52,1.63-2.03l.1-.12.03-.03.04-.05.21-.26c.6-.7,1.24-1.43,1.96-2.11.34-.32.67-.64,1.02-.95l.12-.11.12-.11c-.05.24-.06.49-.07.79v.07c-.01.19-.02.38-.03.57-.01.32,0,.66,0,.95,0,.15,0,.3,0,.45v.76s.01.76.01.76c0,.32,0,.8.05,1.28.04.52.1,1.09.17,1.73.11.95.32,1.93.48,2.64l.21.98.07.34.08.37.23,1.07c.1.44.19.89.28,1.33.07.36.11.74.15,1.06,0,.1,0,.17.03.23v.09s.01.05.01.05l.02.21v.07s.02.19.02.19v.19s.02.1.02.1v.17s.05.44.05.44c.02.28.05.53.09.76v.03c.02.11.04.24.08.36.05.16.11.29.23.42.11.12.25.21.41.26.07.02.14.03.23.03.27,0,.52-.11.77-.39.18-.19.34-.4.51-.66.13-.21.26-.42.39-.63.23-.37.48-.79.78-1.29l.32-.56.11-.2.1-.18c.27-.48.55-.97.83-1.44.49-.84.99-1.68,1.49-2.52.41-.69.87-1.43,1.41-2.29.32-.49.62-.99.93-1.49l.46-.75c.3-.49.6-.98.89-1.47l.02-.03.02-.04.21-.35.26-.43c.2-.33.4-.66.61-.98-.02.32,0,.69,0,1.01.01.32.04.65.06.97l.03.36.02.28v.04c.03.37.06.74.1,1.11v.1c.08.69.19,1.83.35,2.88.04.25.07.5.11.75l.03.2.03.19.03.21.02.14.03.19c.06.39.12.78.18,1.17.03.22.06.43.09.65l.04.29.03.24.02.14.02.11.02.12.02.14.03.21c.04.31.09.62.14.94l.07.49c.09.68.2,1.44.39,2.18.15.63.44,1.48,1.18,1.71h.04c.28.09.6.03.88-.14.22-.14.37-.31.53-.52.18-.23.32-.41.42-.59.46-.71.94-1.5,1.47-2.42.29-.51.57-1.02.85-1.53l.11-.19.08-.15c.28-.51.56-1.02.85-1.52.32-.57.63-1.14.94-1.71.26-.49.52-1.01.81-1.63l.02-.05.02-.05.08-.17.04-.09c.14-.3.3-.66.44-1.01l.1-.25c.13-.33.26-.66.41-.98l.03-.06.06-.13.04-.08.02-.04.02-.05v-.03s.02-.03.02-.03c.32-.66.57-1.14.81-1.56.09-.17.19-.34.29-.52l.14-.24c.12-.22.23-.44.33-.65.1.21.21.47.33.77l.08.2.03.07.02.05c.32.86.6,1.67.86,2.46l.02.07c.15.46.29.91.44,1.35.1.31.21.61.33.95l.14.38c.09.24.17.48.26.72l.03.07.02.05c.2.57.46,1.27.74,1.94.29.67.6,1.32.93,2.02l.04.08.24.5c.18.37.51,1.05.78,1.71.08.23.16.46.24.7l.05.16.09.27c.05.14.1.28.16.42v.03s.03.03.03.03l.07.18c.02.05.04.1.07.15.08.15.25.34.44.39.02,0,.03,0,.05.01h.06c.15.03.27.05.41.01.21-.05.39-.18.55-.4.15-.2.24-.46.32-.69l.05-.14c.08-.24.16-.49.24-.73.12-.38.24-.75.35-1.13l.07-.23c.18-.58.31-1,.45-1.36.09-.24.18-.49.27-.73.06-.16.12-.31.18-.47.32-.87.65-1.81.97-2.77.46-1.41.88-2.81,1.28-4.16l.27-.9.2-.66v-.03c.19-.57.35-1.1.5-1.63.02-.07.04-.15.06-.22l.12.44.13.36.46,1.19.09.24.5,1.29c.4,1.02.73,1.79,1.06,2.49.1.21.21.42.31.64l.08.16.06.12.1.2.1.2.1.2.06.12.07.14.07.14c.12.25.25.5.37.75.22.44.45.96.7,1.58l.17.48v.04c.31.83.65,1.77,1.05,2.62.17.34.35.62.53.82.06.06.13.11.2.16.07.05.14.08.2.1s.14.03.22.03c.27.04.49-.12.61-.22.24-.2.3-.5.32-.8.03-.53.11-1.06.2-1.6.19-1,.42-1.96.61-2.7l.2-.78c.19-.8.37-1.47.53-2.06.44-1.59.92-3.19,1.39-4.75l.2-.68c.07-.25.18-.63.28-1.01.05-.23.1-.47.14-.7v-.03s.02-.07.02-.07l.03-.17c.04-.2.07-.4.12-.61l.08.22.06.1c.24.4.49.79.73,1.16l.09.14.1.15.05.08.05.07.06.09.04.07.41.64c.51.79,1.01,1.62,1.49,2.47.52.92.94,1.72,1.28,2.44.24.51.47,1.03.73,1.62l.1.24c.1.22.19.45.29.67.1.21.19.43.29.64.09.22.19.43.29.65.14.3.3.61.45.9v.03s.1.16.1.16c.09.17.18.35.3.52.09.13.17.24.32.33.07.05.14.08.22.11s.15.03.23.03c.23,0,.39-.08.57-.21.14-.11.2-.27.26-.41.04-.1.05-.2.06-.29v-.12s0-.04,0-.04v-.06s0-.06,0-.06v-.11s0-.11,0-.11v-.09c0-.2,0-.41.01-.61v-.1s0-.04,0-.04v-.11c.02-.66.04-1.67.1-2.6l.02-.35c.06-1.08.14-2.54.32-3.91.16-.88.34-1.79.57-2.78.25-1.09.43-2.06.57-2.95l-.06.04.06-.09v-.04s.02-.05.02-.05v-.06c.11-.55.22-1.18.34-1.77.03.18.1.35.19.56l.07.16c.27.61.52,1.23.78,1.85l.31.74c.12.29.24.58.36.87l.03.06.05.13c.23.57.46,1.11.7,1.66.13.29.26.58.39.88l.1.23.09.21c.17.38.33.75.49,1.13.08.19.16.38.24.57l.04.08c.24.58.5,1.22.83,1.79.09.16.2.31.32.48l.09.12c.21.29.4.48.58.6.09.06.18.11.27.14.16.05.33.05.5,0,.29-.07.5-.28.67-.64.11-.27.16-.59.19-.84.01-.1.02-.17.04-.24Z"/>
  <path class="cls-1" d="M164.34,26.23c.14-.76.21-1.56.28-2.2v-.05s.01-.06.01-.06v-.04s.02-.12.02-.12c.03-.32.06-.63.09-.95l.02-.17.02-.18c.04-.42.08-.84.13-1.25.09-.9.19-1.71.29-2.47.04-.27.08-.53.12-.79v-.05s.01-.04.01-.04v-.03s.02-.11.02-.11v-.07c.08-.47.15-.92.2-1.37.07-.71.11-1.44.15-2.15v-.08s0-.1,0-.1v-.04s0-.08,0-.08c.04-.69.08-1.47.17-2.2,0-.04,0-.08.01-.12v-.07s.02-.05.02-.05v-.06c.02-.08.03-.16.04-.24.01-.15.02-.29.04-.43,0-.07,0-.13-.02-.19.18-.08.36-.19.54-.29l.5-.3c.46-.27.93-.55,1.4-.8.38-.21.53-.66.34-1.04-.09-.18-.26-.32-.46-.39s-.41-.05-.58.05c-.56.31-1.1.63-1.67.96l-.08.04-.16.1c-.18.11-.36.21-.54.32-.68.4-1.42.79-2.06,1.11l-.33.17c-.81.42-1.65.84-2.29,1.16-.37.19-.66.31-.92.42l-.18.08-.23.1c-.23.1-.48.21-.81.34l-.04.02-.31.13c-1.15.47-2.34.9-3.38,1.27h-.03s-.43.17-.43.17c-.86.31-1.68.59-2.5.86-.26.08-.52.15-.79.23l-.13.04c-.14.04-.27.07-.4.11l-.51.14-.51.14-.29.08-.34.1c-.26.08-.53.15-.79.22l-.37.09-.99.24c-.32.08-.65.14-.94.2h-.04c-.17.04-.33.07-.5.11-.31.06-.61.12-.92.18l-.2.04-.32.06-.08.02c-.26.05-.53.1-.79.14l-.86.13-.86.13c-.18.03-.35.05-.53.07h-.12s-.04.02-.04.02h-.04s-.06.01-.06.01l-.29.03-.6.07-.77.09c-.4.04-.81.09-1.21.13-.44.04-.88.09-1.32.14l-.37.04-.19.02h-.13s-.11.02-.11.02c-.63.07-1.27.14-1.9.19-.56.05-1.12.1-1.68.15l-.77.04-.6.03-.35.02h-.05c-.23.02-.46.03-.69.03-.25,0-.51.01-.76.02h-.1s-.07,0-.07,0h-.05c-.51.02-1.09.03-1.65.03h-.6s-.08,0-.08,0h-.09s-.13,0-.13,0c-.54,0-1.2-.01-1.83-.04h-.06s-.18-.01-.18-.01c-.85-.04-1.71-.08-2.56-.12l-.49-.03h-.14c-.27-.02-.53-.04-.8-.05-.3-.02-.61-.05-.92-.08l-.42-.04c-.73-.06-1.46-.13-2.19-.2l-.18-.02c-.04-.06-.11-.14-.19-.19-.06-.04-.12-.07-.19-.1-.14-.05-.29-.05-.41-.01-.18.06-.24.09-.38.19h-.07s-1.32-.17-1.32-.17l-.45-.05c-.53-.06-1.07-.15-1.59-.23l-.12-.02h-.05s-.04-.02-.04-.02h-.05s-.52-.1-.52-.1c-.21-.04-.42-.08-.63-.12h-.06c-.51-.11-1.1-.22-1.67-.35-.49-.11-.98-.23-1.47-.35l-.08-.02-.07-.02c-.25-.06-.51-.13-.76-.2l-.24-.07-.13-.04-.14-.04c-.3-.08-.58-.16-.87-.25,0,0,0,0,0-.04-.08-.2-.24-.35-.51-.47-.02,0-.04-.02-.06-.02-.25-.08-.52.03-.74.13l-.09-.04-.17-.06-.17-.06c-.07-.02-.15-.05-.22-.08l-.1-.04-.45-.18-.45-.18c-.43-.16-.74-.29-1-.41-.4-.18-.81-.37-1.21-.55l-.68-.36-.68-.36c-.89-.47-1.82-1.1-2.85-1.92-.34-.29-.67-.58-1-.87-.22-.19-.43-.4-.63-.59l-.08-.07-.11-.1c-.06-.06-.12-.12-.18-.17-.66-.63-1.19-1.15-1.72-1.69-.58-.6-1.17-1.19-1.75-1.78,0-.16-.07-.31-.18-.44-.08-.1-.2-.18-.33-.22-.05-.02-.1-.03-.15-.03-.14-.15-.29-.3-.44-.46-.18-.2-.36-.4-.54-.6l-.31-.35-.22-.24-.02-.03c-.61-.67-1.23-1.37-1.75-2.11-.21-.33-.37-.63-.48-.91-.08-.19-.27-.32-.43-.37-.18-.06-.39-.04-.57.05-.18.09-.31.25-.37.43s-.04.35.04.57c.34.83.89,1.52,1.47,2.22.33.41.68.8,1.02,1.16l.04.05c.19.21.38.42.57.63.26.29.52.58.78.86-.17.16-.35.37-.54.63-.55.73-.96,1.57-1.35,2.39l-.19.4c-.06.13-.12.26-.19.39l-.02.03-.03.05v.03s-.02.03-.02.03v.03s-.01,0-.02.03l-.02.03-.02.03s0,0,0,0c0,0,0,0-.01.03l-.02.04c-.04.08-.07.13-.09.18l-.02.05-.29.6-.02.04c-.04.05-.06.11-.08.18l-.02.04-.02.04s-.04.07-.05.11c-.05.08-.09.17-.12.25l-.07.15v.04s-.06.1-.06.1l-.06.11v.03c-.05.06-.08.11-.09.16v.03s-.05.07-.05.07l-.06.11-.02.03c-.23.48-.44.91-.65,1.35-.12.25-.23.49-.35.74l-.11.24-.02.04-.02.05c-.29.58-.57,1.16-.85,1.75h.06c-.43.79-.76,1.63-1.06,2.42l-.08.21-.02.05-.02.07c-.12.33-.24.64-.32.96-.03.13-.06.27-.05.4,0,.15.03.26.09.42.08.18.24.31.45.38.15.05.31.06.45.03.27-.05.48-.2.68-.36.15-.11.29-.23.45-.39.62-.59,1.24-1.16,2.01-1.87.55-.5,1.12-.96,1.67-1.4l.05-.04.04-.03.25-.21c.2-.16.41-.32.61-.47l.03-.02.02-.02.16-.12.22-.16c.18-.14.37-.28.55-.43l.42-.33c.2-.15.4-.31.6-.47l.1-.07.05-.03c.41-.32.84-.65,1.27-.97.6-.4,1.12-.71,1.58-.97l.1-.06c.18-.1.36-.2.53-.31l-.07.4-.02.19c-.01.15-.03.3-.04.45-.08.74-.18,1.48-.29,2.3l-.02.11v.1c-.06.35-.1.7-.15,1.06v.04s-.01.08-.01.08v.05s-.03.22-.03.22l-.03.18c-.04.3-.08.59-.12.89l-.05.41c-.04.31-.08.62-.13.93l-.07.44c-.05.29-.1.58-.14.87l-.05.33v.05s-.02.07-.02.07c-.05.33-.08.57-.11.83-.06.51-.1.97-.12,1.41-.04.7-.04,1.46,0,2.4,0,.23.03.45.05.65.02.18.05.38.14.58.05.11.12.22.21.32.07.1.16.16.3.2.06.02.13.03.19.04.18.03.35.01.56-.07.13-.06.23-.12.33-.2.2-.14.37-.31.53-.46.25-.24.48-.5.69-.75l.07-.08c.42-.49.83-.99,1.31-1.6l.03-.04.22-.27c.23-.28.46-.57.68-.86l.11-.13.14-.18.15-.19c.31-.4.63-.79.95-1.19.54-.66,1.13-1.35,1.52-1.81l.09-.11.03-.03.04-.05.2-.23c.55-.62,1.15-1.27,1.81-1.87.31-.28.62-.56.94-.84l.11-.1.11-.1c-.05.22-.06.44-.08.71v.06c-.02.17-.03.34-.04.51-.02.29-.02.6-.02.86,0,.14,0,.27,0,.41v.69s-.02.69-.02.69c0,.29,0,.72.02,1.16.03.47.07.99.12,1.57.08.86.25,1.75.38,2.4l.17.89.06.31.07.34.19.97c.08.4.15.81.22,1.21.06.33.09.67.11.96,0,.09,0,.15.02.21v.08s.01.05.01.05v.19s.02.06.02.06v.17s.02.17.02.17v.09s.01.15.01.15l.02.39c.01.25.03.48.07.69v.03c.02.1.03.21.07.33.05.15.1.27.2.38.09.11.22.19.36.24.06.02.13.03.2.03.25.01.47-.09.71-.33.16-.16.32-.36.47-.59.12-.19.25-.37.37-.56.21-.33.45-.7.73-1.15l.3-.5.1-.18.09-.16c.26-.43.51-.86.78-1.29.46-.75.92-1.5,1.4-2.25.38-.61.82-1.28,1.32-2.04.29-.44.58-.89.87-1.33l.43-.67c.28-.43.56-.87.83-1.31l.02-.03.02-.03.19-.31.24-.39c.18-.29.37-.58.57-.87-.03.29-.02.62-.01.91,0,.29.02.58.04.88l.02.33v.26s.01.04.01.04c.02.33.03.67.06,1v.09c.06.62.14,1.66.26,2.61.03.22.06.45.09.68l.02.18.02.17.03.19.02.13.02.17c.05.35.1.7.14,1.06.03.2.05.39.07.59l.03.26.03.22.02.13v.1s.03.11.03.11v.13s.04.19.04.19c.03.28.07.57.1.85l.06.45c.07.61.15,1.31.31,1.98.13.57.37,1.35,1.04,1.57h.04c.26.09.54.04.8-.11.2-.12.34-.27.49-.46.17-.2.29-.36.39-.52.43-.63.88-1.33,1.37-2.16.27-.45.53-.91.8-1.37l.1-.17.08-.13c.26-.45.53-.91.79-1.36.3-.51.59-1.01.89-1.52.25-.44.49-.9.76-1.46l.02-.04.02-.04.07-.15.04-.08c.13-.27.28-.59.42-.9l.1-.22c.13-.29.25-.59.39-.88l.03-.05.05-.11.03-.07.02-.04.02-.04v-.03s.02-.03.02-.03c.3-.59.54-1.02.76-1.39.09-.16.18-.31.28-.46l.14-.22c.12-.19.22-.4.31-.59.09.19.18.43.28.7l.07.18.02.06.02.04c.27.79.51,1.52.73,2.24l.02.06c.12.41.24.82.37,1.23.08.28.18.56.28.86l.12.34c.07.22.15.44.22.66l.02.07.02.05c.17.52.39,1.16.63,1.77.25.61.52,1.21.8,1.84l.03.07.21.46c.15.33.44.96.67,1.56.07.21.14.42.2.63l.04.14.08.24c.04.13.09.26.13.38v.03s.02.03.02.03l.06.17s.04.1.06.14c.07.13.22.31.39.36.02,0,.03,0,.04.01h.05c.14.03.24.05.37.02.19-.04.36-.15.51-.35.14-.18.23-.41.3-.62l.04-.12c.08-.22.16-.44.23-.65.12-.34.23-.68.34-1.01l.07-.2c.17-.52.3-.89.43-1.22.08-.22.17-.44.26-.65.06-.14.12-.28.17-.42.31-.78.62-1.62.93-2.48.44-1.26.85-2.52,1.24-3.73l.26-.81.19-.6v-.03c.18-.52.33-.99.48-1.46.02-.07.04-.13.06-.2l.1.4.11.32.4,1.09.08.22.43,1.17c.34.93.62,1.63.91,2.27.09.19.18.39.27.58l.07.15.05.11.09.19.09.18.09.18.05.11.06.12.06.13c.11.23.21.45.32.68.19.4.39.87.6,1.44l.15.44v.03c.26.75.55,1.61.9,2.39.15.31.3.57.46.75.06.05.12.1.18.15.06.04.12.08.18.1s.13.03.2.03c.24.04.45-.1.55-.18.22-.18.28-.45.31-.72.04-.48.12-.96.21-1.44.19-.9.42-1.77.61-2.42l.19-.7c.19-.72.36-1.32.52-1.85.43-1.43.9-2.87,1.35-4.26l.2-.61c.07-.22.18-.56.27-.9.05-.21.1-.42.14-.63v-.03s.02-.06.02-.06l.03-.15c.04-.18.08-.36.12-.55l.07.2.05.09c.21.36.43.72.64,1.07l.08.12.09.14.04.07.04.07.05.08.04.06.36.59c.45.72.88,1.48,1.3,2.26.45.84.81,1.57,1.11,2.23.21.47.4.94.63,1.48l.09.22c.08.2.17.41.25.61.08.2.16.39.25.59.08.2.16.39.25.59.12.27.26.55.39.82v.03s.09.15.09.15c.08.16.16.32.26.47.08.12.14.22.28.31.06.04.13.08.19.1s.14.03.21.03c.2,0,.35-.06.52-.18.13-.1.19-.24.24-.37.04-.09.05-.18.06-.26v-.11s.01-.03.01-.03v-.06s0-.05,0-.05v-.1s0-.1,0-.1v-.08c.01-.18.02-.37.02-.55v-.09s0-.04,0-.04v-.1c.03-.6.07-1.51.14-2.34l.02-.31c.08-.98.18-2.29.37-3.53.16-.79.34-1.61.57-2.5.24-.98.43-1.85.58-2.65l-.05.04.06-.08v-.04s.02-.04.02-.04v-.05c.11-.5.22-1.06.34-1.6.02.16.09.32.16.51l.06.14c.23.56.45,1.12.67,1.68l.26.68c.1.26.21.53.31.79l.02.06.05.11c.2.52.39,1.01.6,1.51.11.27.22.53.33.8l.09.21.08.19c.14.35.29.69.42,1.03.07.17.14.35.21.52l.03.08c.21.53.43,1.11.72,1.64.08.15.17.28.28.44l.08.11c.18.26.35.44.51.55.08.06.16.1.24.13.14.05.3.05.46.02.26-.05.46-.24.62-.57.11-.24.15-.53.19-.76.01-.09.02-.15.04-.22Z"/>
</svg>